HIERARCHY
ROOT joint_Root
{
	OFFSET 0.0 0.0 0.0
	CHANNELS 6 Xposition Yposition Zposition Zrotation Xrotation Yrotation 
	JOINT Hips
	{
		OFFSET 4.5925 91.4895 -427.239
		CHANNELS 6 Xposition Yposition Zposition Zrotation Xrotation Yrotation 
		JOINT Spine
		{
			OFFSET 15.7357 0.0 0.0
			CHANNELS 6 Xposition Yposition Zposition Zrotation Xrotation Yrotation 
			JOINT Chest
			{
				OFFSET 8.98455 -0.406207 0.0
				CHANNELS 6 Xposition Yposition Zposition Zrotation Xrotation Yrotation 
				JOINT Neck
				{
					OFFSET 16.3773 0.0 0.0
					CHANNELS 6 Xposition Yposition Zposition Zrotation Xrotation Yrotation 
					JOINT Head
					{
						OFFSET 6.45672 0.0 0.0
						CHANNELS 6 Xposition Yposition Zposition Zrotation Xrotation Yrotation 
						End Site
						{
							OFFSET 0.0 0.0 0.0
						}
					}
				}
				JOINT Shoulder_L
				{
					OFFSET 12.9942 -0.242716 4.98039
					CHANNELS 6 Xposition Yposition Zposition Zrotation Xrotation Yrotation 
					JOINT UpperArm_L
					{
						OFFSET 5.34809 0.0 0.0
						CHANNELS 6 Xposition Yposition Zposition Zrotation Xrotation Yrotation 
						JOINT LowerArm_L
						{
							OFFSET 24.3286 1.87007e-05 0.0
							CHANNELS 6 Xposition Yposition Zposition Zrotation Xrotation Yrotation 
							JOINT Hand_L
							{
								OFFSET 22.2916 0.0 0.0
								CHANNELS 6 Xposition Yposition Zposition Zrotation Xrotation Yrotation 
								End Site
								{
									OFFSET 0.0 0.0 0.0
								}
							}
						}
					}
				}
				JOINT Shoulder_R
				{
					OFFSET 12.9945 -0.242716 -4.98039
					CHANNELS 6 Xposition Yposition Zposition Zrotation Xrotation Yrotation 
					JOINT UpperArm_R
					{
						OFFSET -5.34813 0.0 0.0
						CHANNELS 6 Xposition Yposition Zposition Zrotation Xrotation Yrotation 
						JOINT LowerArm_R
						{
							OFFSET -24.3289 0.000322201 0.0
							CHANNELS 6 Xposition Yposition Zposition Zrotation Xrotation Yrotation 
							JOINT Hand_R
							{
								OFFSET -22.2915 -0.000108084 0.0
								CHANNELS 6 Xposition Yposition Zposition Zrotation Xrotation Yrotation 
								End Site
								{
									OFFSET 0.0 0.0 0.0
								}
							}
						}
					}
				}
			}
		}
		JOINT UpperLeg_L
		{
			OFFSET -2.19248 -6.46944 0.0
			CHANNELS 6 Xposition Yposition Zposition Zrotation Xrotation Yrotation 
			JOINT LowerLeg_L
			{
				OFFSET 39.0811 0.0 -1.23785e-05
				CHANNELS 6 Xposition Yposition Zposition Zrotation Xrotation Yrotation 
				JOINT Foot_L
				{
					OFFSET 40.9854 0.0 -1.26872e-05
					CHANNELS 6 Xposition Yposition Zposition Zrotation Xrotation Yrotation 
					JOINT Toes_L
					{
						OFFSET 11.7543 0.0 0.0
						CHANNELS 6 Xposition Yposition Zposition Zrotation Xrotation Yrotation 
						End Site
						{
							OFFSET 0.0 0.0 0.0
						}
					}
				}
			}
		}
		JOINT UpperLeg_R
		{
			OFFSET -2.19251 6.46944 0.0
			CHANNELS 6 Xposition Yposition Zposition Zrotation Xrotation Yrotation 
			JOINT LowerLeg_R
			{
				OFFSET -39.0811 -0.00228153 -0.0401928
				CHANNELS 6 Xposition Yposition Zposition Zrotation Xrotation Yrotation 
				JOINT Foot_R
				{
					OFFSET -40.9854 0.0 0.0
					CHANNELS 6 Xposition Yposition Zposition Zrotation Xrotation Yrotation 
					JOINT Toes_R
					{
						OFFSET -11.7543 0.0 0.0
						CHANNELS 6 Xposition Yposition Zposition Zrotation Xrotation Yrotation 
						End Site
						{
							OFFSET 0.0 0.0 0.0
						}
					}
				}
			}
		}
	}
}
MOTION
Frames:	6
Frame Time:	0.0333333
0.000000 0.000000 0.000000 0.000000 0.000000 -0.000000 -11.155700 83.762900 -31.585500 87.263400 -2.892020 -0.576071 15.735700 0.000005 -0.000001 89.142200 83.460400 -87.036700 8.984550 -0.406207 -0.000000 5.319700 -0.240251 4.217260 16.377300 -0.000001 -0.000001 -4.222720 -2.653920 1.954770 6.456720 -0.000001 -0.000000 -9.690490 -2.339580 4.067770 12.994200 -0.242716 4.980390 -90.760600 2.085850 -69.955200 5.348090 -0.000007 -0.000001 -71.762900 28.879100 7.170080 24.328600 0.000019 0.000005 25.420400 -3.669670 -97.673900 22.291600 -0.000001 0.000005 9.357130 5.522690 -7.492820 12.994500 -0.242716 -4.980390 87.889400 8.868600 -76.561400 -5.348130 -0.000001 -0.000004 -48.157400 36.268800 -22.930500 -24.328900 0.000322 -0.000009 13.298600 -3.717380 -105.340000 -22.291500 -0.000108 -0.000004 16.334200 5.613150 -12.157400 -2.192480 -6.469440 -0.000000 -179.223000 -6.456400 -30.535400 39.081100 -0.000007 -0.000012 -0.268927 -0.121247 114.271000 40.985400 -0.000006 -0.000013 11.227400 -7.530450 -46.110100 11.754300 -0.000000 0.000003 -0.004815 -0.059673 -19.004600 -2.192510 6.469440 -0.000001 -176.362000 9.888070 163.375000 -39.081100 -0.002282 -0.040193 0.115036 -0.080848 54.128700 -40.985400 0.000008 0.000006 10.120100 1.625630 -87.844800 -11.754300 -0.000006 -0.000006 -0.941465 -1.160890 -17.145400
0.000000 0.000000 0.000000 0.000000 0.000000 -0.000000 -10.625300 86.132100 -23.281200 89.205700 -4.914300 -1.233720 15.735700 0.000005 -0.000001 111.262000 83.537100 -110.359000 8.984550 -0.406207 -0.000000 4.255330 4.652130 1.632560 16.377300 -0.000001 -0.000001 -3.832360 -2.504180 2.807780 6.456720 -0.000001 -0.000000 -9.416150 -4.557410 6.784630 12.994200 -0.242716 4.980390 -90.366000 0.911700 -68.098500 5.348090 -0.000007 -0.000001 -70.026300 34.554800 11.488300 24.328600 0.000019 0.000005 19.206100 -4.402280 -102.438000 22.291600 -0.000001 0.000005 9.699830 5.522770 -7.481220 12.994500 -0.242716 -4.980390 88.542300 7.133840 -78.422100 -5.348130 -0.000001 -0.000004 -52.624000 35.673600 -22.430100 -24.328900 0.000322 -0.000009 8.288060 -2.827400 -108.726000 -22.291500 -0.000108 -0.000004 20.501100 5.612980 -12.125000 -2.192480 -6.469440 -0.000000 176.333000 -6.256030 -36.159200 39.081100 -0.000007 -0.000012 -0.232280 -0.071773 107.174000 40.985400 -0.000006 -0.000013 9.262780 -7.287260 -51.923200 11.754300 -0.000000 0.000003 -0.005232 -0.063701 -19.168800 -2.192510 6.469440 -0.000001 179.527000 9.142370 172.627000 -39.081100 -0.002282 -0.040193 0.083582 -0.081047 44.740700 -40.985400 0.000008 0.000006 9.943380 4.529290 -82.393500 -11.754300 -0.000006 -0.000006 -1.905180 -2.121660 -21.917000
0.000000 0.000000 0.000000 0.000000 0.000000 -0.000000 -10.221200 89.293800 -14.938800 90.811700 -6.713450 -3.509710 15.735700 0.000005 -0.000001 130.382000 83.311300 -130.813000 8.984550 -0.406207 -0.000000 2.483570 8.679880 -1.052490 16.377300 -0.000001 -0.000001 -4.106370 -2.422030 3.064480 6.456720 -0.000001 -0.000000 -9.640650 -6.524870 8.383020 12.994200 -0.242716 4.980390 -89.692100 -0.699673 -66.280800 5.348090 -0.000007 -0.000001 -67.817800 38.902500 14.417600 24.328600 0.000019 0.000005 14.933400 -4.542380 -106.542000 22.291600 -0.000001 0.000005 8.532340 5.520520 -7.384050 12.994500 -0.242716 -4.980390 88.947500 5.680250 -79.486800 -5.348130 -0.000001 -0.000004 -55.035300 37.995300 -22.106500 -24.328900 0.000322 -0.000009 1.805010 -0.681629 -110.701000 -22.291500 -0.000108 -0.000004 25.998200 5.627580 -13.123700 -2.192480 -6.469440 -0.000000 173.555000 -5.276340 -40.018100 39.081100 -0.000007 -0.000012 -0.128966 -0.007950 93.531800 40.985400 -0.000006 -0.000013 7.252690 -8.631250 -55.938500 11.754300 -0.000000 0.000003 -0.005044 -0.061902 -19.095400 -2.192510 6.469440 -0.000001 175.445000 11.241400 177.853000 -39.081100 -0.002282 -0.040193 0.074137 -0.093005 37.300300 -40.985400 0.000008 0.000006 10.525000 10.269400 -70.171700 -11.754300 -0.000006 -0.000006 -0.078670 -0.388206 -32.684400
0.000000 0.000000 0.000000 0.000000 0.000000 -0.000000 -10.046700 92.473700 -6.736300 90.912000 -7.282440 -5.113230 15.735700 0.000005 -0.000001 139.406000 83.036800 -140.626000 8.984550 -0.406207 -0.000000 1.438260 10.637200 -2.576110 16.377300 -0.000001 -0.000001 -4.878890 -2.363470 2.678710 6.456720 -0.000001 -0.000000 -10.426900 -7.517970 8.136350 12.994200 -0.242716 4.980390 -88.935700 -2.246470 -64.650000 5.348090 -0.000007 -0.000001 -66.466300 39.829200 17.485800 24.328600 0.000019 0.000005 14.422500 -5.191520 -109.383000 22.291600 -0.000001 0.000005 6.090640 5.509410 -6.912920 12.994500 -0.242716 -4.980390 89.256400 4.293280 -80.165600 -5.348130 -0.000001 -0.000004 -56.523800 40.949100 -22.239100 -24.328900 0.000322 -0.000009 0.555883 -0.211150 -110.815000 -22.291500 -0.000108 -0.000004 24.068600 5.632330 -13.478300 -2.192480 -6.469440 -0.000000 173.685000 -3.937920 -39.674600 39.081100 -0.000007 -0.000012 -0.039741 0.010988 74.553700 40.985400 -0.000006 -0.000013 7.074560 -10.703600 -58.773100 11.754300 -0.000000 0.000003 -0.004791 -0.059435 -18.994900 -2.192510 6.469440 -0.000001 172.286000 16.897000 -178.066000 -39.081100 -0.002282 -0.040193 0.093001 -0.148189 31.187500 -40.985400 0.000008 0.000006 9.535900 18.368200 -52.822100 -11.754300 -0.000006 -0.000006 -0.181336 -0.613164 -42.722400
0.000000 0.000000 0.000000 0.000000 0.000000 -0.000000 -10.330600 94.501700 1.671930 89.581700 -6.678670 -4.957900 15.735700 0.000005 -0.000001 139.460000 82.797000 -140.894000 8.984550 -0.406207 -0.000000 1.771320 11.016800 -3.042880 16.377300 -0.000001 -0.000001 -5.782060 -2.430830 1.875160 6.456720 -0.000001 -0.000000 -11.520700 -8.143920 6.890170 12.994200 -0.242716 4.980390 -87.928000 -4.233850 -63.892900 5.348090 -0.000007 -0.000001 -66.467100 37.913900 20.343000 24.328600 0.000019 0.000005 14.628600 -5.678360 -110.761000 22.291600 -0.000001 0.000005 5.202510 5.491930 -6.209630 12.994500 -0.242716 -4.980390 89.490500 3.065130 -80.560900 -5.348130 -0.000001 -0.000004 -57.223900 43.910000 -23.026700 -24.328900 0.000322 -0.000009 2.707320 -0.958984 -109.503000 -22.291500 -0.000108 -0.000004 20.511900 5.610860 -11.968700 -2.192480 -6.469440 -0.000000 176.523000 -2.663630 -34.445400 39.081100 -0.000007 -0.000012 0.025673 -0.019846 52.289000 40.985400 -0.000006 -0.000013 6.644320 -8.817600 -63.319000 11.754300 -0.000000 0.000003 -0.005120 -0.062633 -19.125300 -2.192510 6.469440 -0.000001 169.563000 22.351100 -173.351000 -39.081100 -0.002282 -0.040193 0.130193 -0.233057 28.566200 -40.985400 0.000008 0.000006 1.461950 22.093900 -38.650600 -11.754300 -0.000006 -0.000006 -0.041609 -0.266460 -27.523400
0.000000 0.000000 0.000000 0.000000 0.000000 -0.000000 -11.035400 94.804000 10.170000 87.836100 -6.542560 -5.220680 15.735700 0.000005 -0.000001 140.724000 82.818300 -142.061000 8.984550 -0.406207 -0.000000 1.490670 11.186600 -2.824660 16.377300 -0.000001 -0.000001 -6.257890 -2.524430 0.440021 6.456720 -0.000001 -0.000000 -11.192600 -8.622980 5.097070 12.994200 -0.242716 4.980390 -86.817200 -6.591490 -64.151000 5.348090 -0.000007 -0.000001 -67.642800 34.583000 22.560000 24.328600 0.000019 0.000005 14.427000 -5.655290 -110.960000 22.291600 -0.000001 0.000005 4.827230 5.469090 -5.335240 12.994500 -0.242716 -4.980390 89.791700 1.362550 -81.315200 -5.348130 -0.000001 -0.000004 -58.704400 46.343500 -22.212200 -24.328900 0.000322 -0.000009 2.550420 -0.801456 -107.422000 -22.291500 -0.000108 -0.000004 18.404300 5.587960 -10.638300 -2.192480 -6.469440 -0.000000 -179.664000 -1.664610 -28.624800 39.081100 -0.000007 -0.000012 0.030083 -0.050741 30.661900 40.985400 -0.000006 -0.000013 4.991230 -3.256680 -67.008600 11.754300 -0.000000 0.000003 -0.005784 -0.068869 -19.379500 -2.192510 6.469440 -0.000001 170.182000 21.656100 -171.582000 -39.081100 -0.002282 -0.040193 0.188123 -0.283111 33.138600 -40.985400 0.000008 0.000006 2.383420 12.906400 -38.831100 -11.754300 -0.000006 -0.000006 -0.019916 -0.166822 -23.388600
